<?xml version="1.0" encoding="UTF-8" standalone="no"?>
<svg
   xmlns:dc="http://purl.org/dc/elements/1.1/"
   xmlns:cc="http://creativecommons.org/ns#"
   xmlns:rdf="http://www.w3.org/1999/02/22-rdf-syntax-ns#"
   xmlns:svg="http://www.w3.org/2000/svg"
   xmlns="http://www.w3.org/2000/svg"
   xmlns:sodipodi="http://sodipodi.sourceforge.net/DTD/sodipodi-0.dtd"
   xmlns:inkscape="http://www.inkscape.org/namespaces/inkscape"
   class="logo-CdiscountRebranding--svg"
   width="1000"
   height="214.66696"
   viewBox="0 0 4069.8925 939.16796"
   role="img"
   aria-label="Cdiscount.fr"
   version="1.1"
   id="svg3768"
   sodipodi:docname="A.svg"
   style="fill:none"
   inkscape:version="0.92.4 (5da689c313, 2019-01-14)">
  <metadata
     id="metadata3774">
    <rdf:RDF>
      <cc:Work
         rdf:about="">
        <dc:format>image/svg+xml</dc:format>
        <dc:type
           rdf:resource="http://purl.org/dc/dcmitype/StillImage" />
        <dc:title>Cdiscount.fr</dc:title>
      </cc:Work>
    </rdf:RDF>
  </metadata>
  <defs
     id="defs3772" />
  <sodipodi:namedview
     pagecolor="#ffffff"
     bordercolor="#111111"
     borderopacity="1"
     objecttolerance="10"
     gridtolerance="10"
     guidetolerance="10"
     inkscape:pageopacity="0"
     inkscape:pageshadow="2"
     inkscape:window-width="1920"
     inkscape:window-height="1017"
     id="namedview3770"
     showgrid="false"
     fit-margin-top="0"
     fit-margin-left="0"
     fit-margin-right="0"
     fit-margin-bottom="0"
     inkscape:zoom="0.88978495"
     inkscape:cx="492.00144"
     inkscape:cy="19.61567"
     inkscape:window-x="1912"
     inkscape:window-y="-8"
     inkscape:window-maximized="1"
     inkscape:current-layer="svg3768" />
  <title
     id="title3754">Cdiscount.fr</title>
  <g
     id="g3766"
     style="fill:#3732ff;fill-opacity:1"
     transform="matrix(5.7799218,0,0,5.7799218,-152.95454,-34.679531)">
    <path
       d="m 164.139,67.0183 c -5.151,23.0793 -11.719,43.2157 -17.552,58.7387 -1.8,-15.245 -3.414,-30.3424 -5.039,-45.5332 -1.698,-15.8854 -3.408,-31.8727 -5.352,-48.2372 l -19.903,2.4587 c 0.321,3.2531 0.675,6.5043 1.028,9.7558 0.917,8.4285 1.834,16.8588 2.185,25.3297 C 82.0691,90.8155 69.1297,116.73 69.2732,133.977 40.9999,145 13.9999,129.5 21.4456,99.6272 28.8458,75.2305 58.8587,68.5045 80.6155,75.9736 L 87.148,57.0041 C 54.6424,45.8091 13.4998,58 2.27867,93.7766 -10.5002,141 34.4998,170 76.9364,152.57 94.9998,166.5 118.5,153.5 127.635,136.166 c 2.028,17.032 3.428,28.589 3.482,28.876 l 18.826,3.446 c 0.538,-1.023 8.884,-17.013 18.126,-42.982 1.077,14.591 2.028,27.315 2.315,31.048 l 19.993,-1.526 c -0.772,-10.157 -6.443,-86.6278 -6.443,-86.6278 z M 90.0912,137.494 C 84.9998,120 111.272,98.8231 119.506,93.1664 120,108.5 109.5,142.5 90.0912,137.494 Z m 74.3068,-105.0092 -0.333,20.8878 20.045,0.3187 0.332,-20.8877 z M 401.68,137.979 C 411.5,135 407.5,78 402.416,60.7188 l 19.418,-5.0609 C 427.95,79.452 439,157.989 401.5,157.989 c -30.182,-0.311 -31.515,-45.177 -31.388,-66.2585 -2.549,1.3998 -5.187,2.5305 -7.897,3.3739 0.468,22.2206 -5.215,63.0646 -33.309,63.1536 -10.406,-0.269 -15.137,-4.765 -18.897,-12.652 -6.012,6.407 -14.555,12.563 -25.754,12.563 -16.925,0 -30.45,-12.775 -35.965,-28.123 -9.17,17.48 -46.84,26.633 -48.455,27.01 l -4.648,-19.508 c 16.726,-3.966 30.616,-11.396 34.475,-15.578 -3.921,-4.02 -9.281,-7.317 -14.717,-10.659 -11.422,-7.024 -23.176,-14.2529 -22.612,-28.8409 1.22,-17.139 21.679,-27.3686 43.628,-35.8753 l 7.251,18.7004 c -28.195,10.9115 -30.761,16.9774 -30.869,18.5747 4.288,4.2741 10.506,8.485 16.516,12.5553 6.126,4.1478 12.036,8.1498 15.465,11.9238 -0.976,-22.33 6.304,-58.0165 34.547,-58.9904 14.394,-0.5025 25.323,9.9604 26.525,11.1628 L 291.308,74.8069 C 289.675,73.2276 284.417,69.2255 279.464,69.405 260,71.5 257.5,133 280.774,137.656 c 9.871,2.64 16.08,-6.808 21.072,-14.403 0.805,-1.225 1.578,-2.402 2.33,-3.472 C 302.5,98 306,52.5 332.514,52.3378 c 11.216,0 25.935,10.2308 27.996,21.8409 5.431,-3.0546 9.248,-8.2158 12.437,-13.4419 l 18.539,6.2095 C 389.5,78 388.5,138.5 401.68,137.979 Z M 328.314,79.7063 C 322.432,95.3013 321.5,122 328.709,138.23 339.5,137.656 342.479,104.675 342.115,94.3327 336.404,91.1562 331.542,85.355 328.314,79.7063 Z m 159.15,33.6317 -32.77,-62.5973 -18.916,4.7918 1.472,100.8775 20.064,-0.287 -0.861,-58.793 32.16,61.431 18.916,-4.648 V 65.2416 h -20.065 z m 1.992,-79.9156 76.399,1.8126 -0.467,20.0463 -25.843,-0.6102 c 0.385,15.0525 0.867,30.1023 1.349,45.1521 0.608,18.9978 1.217,37.9968 1.63,56.9998 l -20.046,0.449 c -0.419,-18.317 -1.004,-36.629 -1.589,-54.94 -0.513,-16.0477 -1.025,-32.0949 -1.426,-48.1455 l -30.491,-0.7178 z"
       id="path3756"
       style="fill:#3732ff;fill-opacity:1"
       inkscape:connector-curvature="0" />
    <path
       d="m 663.018,26.477 -109.223,46.033 7.071,16.7979 3.284,-1.3818 -0.323,33.5959 23.689,-1.92 -5.186,34.906 14.985,8.219 46.249,-40.11 -6.138,-7.089 50.627,-4.128 C 680.084,82.9797 671.61,54.715 663.018,26.477 Z m -59.062,106.351 2.189,-14.752 16.367,-1.328 z M 582.24,101.745 582.456,80.209 651.46,51.1356 c 3.302,10.9474 8.758,29.1811 13.029,43.9152 z"
       id="path3758"
       style="fill:#3732ff;fill-opacity:1"
       inkscape:connector-curvature="0" />
    <path
       d="m 703.02,6 c -0.179,0.14357 -17.803,15.0572 -25.053,20.6565 l 11.145,14.4111 c 7.555,-5.8506 24.927,-20.5309 25.663,-21.159 z"
       id="path3760"
       style="fill:#3732ff;fill-opacity:1"
       inkscape:connector-curvature="0" />
    <path
       d="m 750.465,27.9915 -54.102,20.7691 6.535,17.023 L 757,45.0145 Z"
       id="path3762"
       style="fill:#3732ff;fill-opacity:1"
       inkscape:connector-curvature="0" />
    <path
       d="m 701.118,95.1228 c 9.907,-2.5125 20.136,-3.7149 30.33,-3.5354 l 0.323,-18.2158 c -11.827,-0.1795 -23.636,1.1665 -35.122,4.0918 z"
       id="path3764"
       style="fill:#3732ff;fill-opacity:1"
       inkscape:connector-curvature="0" />
  </g>
</svg>
